<?xml version="1.0" encoding="UTF-8" standalone="no"?><!DOCTYPE svg PUBLIC "-//W3C//DTD SVG 1.1//EN" "http://www.w3.org/Graphics/SVG/1.1/DTD/svg11.dtd"><svg width="100%" height="100%" viewBox="0 0 2755 1817" version="1.1" xmlns="http://www.w3.org/2000/svg" xmlns:xlink="http://www.w3.org/1999/xlink" xml:space="preserve" style="fill-rule:evenodd;clip-rule:evenodd;stroke-linejoin:round;stroke-miterlimit:1.41421;"><g><g><path d="M657.652,341.71l113.155,0l0,507.021l-113.155,0l0,-199.471l-201.648,0l0,199.471l-113.155,0l0,-507.021l113.155,0l0,211.803l201.648,0l0,-211.803Z" style="fill:#505050;fill-rule:nonzero;"/><path d="M1256.79,848.731l-47.148,-109.528l-212.528,0l-47.148,109.528l-120.408,0l219.056,-507.021l109.528,0l219.057,507.021l-120.409,0Zm-153.049,-356.147l-63.831,147.246l126.937,0l-63.106,-147.246Z" style="fill:#505050;fill-rule:nonzero;"/><path d="M1668.79,748.633c55.61,0 101.066,-22.003 136.366,-66.007l72.535,74.711c-57.544,64.798 -125.365,97.197 -203.461,97.197c-78.096,0 -142.41,-24.662 -192.943,-73.986c-50.533,-49.324 -75.8,-111.583 -75.8,-186.778c0,-75.195 25.75,-137.938 77.25,-188.229c51.5,-50.291 114.485,-75.436 188.955,-75.436c83.173,0 152.807,31.673 208.901,95.021l-70.359,79.789c-35.784,-44.489 -80.273,-66.733 -133.465,-66.733c-42.554,0 -78.942,13.903 -109.165,41.708c-30.223,27.805 -45.335,65.282 -45.335,112.429c0,47.148 14.265,84.987 42.796,113.518c28.53,28.531 63.105,42.796 103.725,42.796Z" style="fill:#505050;fill-rule:nonzero;"/><path d="M1966.91,341.71l113.155,0l0,208.176l191.492,-208.176l139.993,0l-201.647,224.134c17.408,24.178 49.565,69.271 96.471,135.278c46.906,66.007 81.965,115.21 105.176,147.609l-132.014,0l-148.697,-200.197l-50.774,56.578l0,143.619l-113.155,0l0,-507.021Z" style="fill:#505050;fill-rule:nonzero;"/><path d="M767.849,1341.5c11.25,0 21.146,-8.959 29.688,-26.875c8.541,-17.917 12.812,-40.417 12.812,-67.5c0,-58.75 -16.875,-107.396 -50.625,-145.938c-33.75,-38.542 -78.958,-57.812 -135.625,-57.812c-56.667,0 -104.375,20.208 -143.125,60.625c-38.75,40.416 -58.125,88.854 -58.125,145.312c0,56.458 18.229,103.438 54.688,140.938c36.458,37.5 81.562,56.25 135.312,56.25c42.083,0 79.167,-15.417 111.25,-46.25l25.625,44.375c-16.667,14.583 -37.917,26.354 -63.75,35.312c-25.833,8.958 -50.208,13.438 -73.125,13.438c-69.583,0 -127.812,-23.23 -174.687,-69.688c-46.875,-46.458 -70.313,-104.583 -70.313,-174.375c0,-69.792 24.688,-129.375 74.063,-178.75c49.375,-49.375 108.854,-74.062 178.437,-74.062c69.583,0 127.708,23.75 174.375,71.25c46.667,47.5 70,106.666 70,177.5c0,45.833 -9.479,82.604 -28.437,110.312c-18.959,27.708 -43.855,41.563 -74.688,41.563c-15.833,0 -30.312,-4.792 -43.437,-14.375c-13.125,-9.584 -22.188,-21.667 -27.188,-36.25c-22.917,29.583 -51.979,44.375 -87.187,44.375c-35.209,0 -65.834,-13.334 -91.875,-40c-26.042,-26.667 -39.063,-60.521 -39.063,-101.563c0,-41.042 11.771,-75.625 35.313,-103.75c23.541,-28.125 54.479,-42.187 92.812,-42.187c12.917,0 25.208,2.812 36.875,8.437c11.667,5.625 20,11.146 25,16.563l8.125,8.125l0,-25.625l78.125,0l0,199.375c0,20.833 6.25,31.25 18.75,31.25Zm-112.812,-146.25c-11.042,-13.75 -25.521,-20.625 -43.438,-20.625c-17.917,0 -32.187,6.875 -42.812,20.625c-10.625,13.75 -15.938,30.729 -15.938,50.937c0,20.208 5.313,37.813 15.938,52.813c10.625,15 25.104,22.5 43.437,22.5c18.333,0 32.813,-7.188 43.438,-21.563c10.625,-14.375 15.937,-31.979 15.937,-52.812c0,-20.834 -5.521,-38.125 -16.562,-51.875Z" style="fill:#505050;fill-rule:nonzero;"/><path d="M1197.16,1277.95l89.943,-291.591l118.233,0l89.218,291.591l100.824,-291.591l122.584,0l-176.985,507.021l-84.141,0l-110.979,-352.521l-110.254,352.521l-84.14,0l-176.986,-507.021l122.584,0l100.099,291.591Z" style="fill:#ff3633;fill-rule:nonzero;"/><path d="M2127.43,1031.69c35.542,30.223 53.313,76.646 53.313,139.268c0,62.622 -18.255,108.44 -54.764,137.454c-36.51,29.014 -92.241,43.521 -167.194,43.521l-67.457,0l0,141.444l-113.155,0l0,-507.021l179.162,0c77.854,0 134.552,15.111 170.095,45.334Zm-83.053,199.472c13.54,-15.233 20.31,-37.477 20.31,-66.732c0,-29.256 -8.826,-50.05 -26.476,-62.381c-17.65,-12.331 -45.092,-18.496 -82.327,-18.496l-64.556,0l0,170.457l76.161,0c37.719,0 63.348,-7.616 76.888,-22.848Z" style="fill:#ff3633;fill-rule:nonzero;"/><rect x="2269.23" y="986.358" width="113.155" height="507.021" style="fill:#ff3633;fill-rule:nonzero;"/></g><path d="M2714.7,1776.83l-2675,0l0,-1737.5l2675,0l0,1737.5Zm-2583.33,-1645.83l0,1554.17l2491.67,0l0,-1554.17l-2491.67,0Z" style="fill:#505050;"/></g></svg>